<svg preserveAspectRatio="none" overflow="visible" style="display: block;" width="244.407" height="120" viewBox="0 0 244.407 120" fill="none" xmlns="http://www.w3.org/2000/svg">
<g id="Polygon 5" opacity="0.8" style="mix-blend-mode:hard-light">
<path d="M206.82 0C209.31 0 211.61 1.33 212.86 3.49L243.47 56.51C244.72 58.67 244.72 61.33 243.47 63.49L212.86 116.51C211.61 118.67 209.31 120 206.82 120L37.59 120C35.1 120 32.8 118.67 31.55 116.51L0.93 63.49C-0.31 61.33-0.31 58.67 0.93 56.51L31.55 3.49C32.8 1.33 35.1 0 37.59 0L206.82 0Z" fill="#161719"/>
<path d="M206.82 0C209.31 0 211.61 1.33 212.86 3.49L243.47 56.51C244.72 58.67 244.72 61.33 243.47 63.49L212.86 116.51C211.61 118.67 209.31 120 206.82 120L37.59 120C35.1 120 32.8 118.67 31.55 116.51L0.93 63.49C-0.31 61.33-0.31 58.67 0.93 56.51L31.55 3.49C32.8 1.33 35.1 0 37.59 0L206.82 0Z" fill="url(#paint0_radial_0_316)" fill-opacity="0.2"/>
</g>
<defs>
<radialGradient id="paint0_radial_0_316" cx="0" cy="0" r="1" gradientUnits="userSpaceOnUse" gradientTransform="translate(121.428 106.755) rotate(90) scale(139 294.753)">
<stop stop-color="white" stop-opacity="0.6"/>
<stop offset="0.559865" stop-color="#414141" stop-opacity="0.8725"/>
<stop offset="1"/>
</radialGradient>
</defs>
</svg>
