<svg width="26.845" height="20.005" viewBox="0 0 26.845 20.005" fill="none" xmlns="http://www.w3.org/2000/svg">
<path d="M4.163 7.024 C3.989 7.198 3.784 7.28 3.517 7.28 C2.984 7.28 2.615 6.921 2.615 6.378 C2.615 6.142 2.728 5.875 2.902 5.701 L8.08 0.41 C8.459 0.01 9.054 0.0 9.454 0.41 L14.622 5.701 C14.807 5.875 14.909 6.142 14.909 6.378 C14.909 6.921 14.54 7.28 14.007 7.28 C13.74 7.28 13.545 7.198 13.371 7.024 L11.228 4.819 L9.536 2.82 L9.68 5.271 L9.68 18.97 C9.68 19.503 9.3 19.893 8.767 19.893 C8.224 19.893 7.844 19.503 7.844 18.97 L7.844 5.271 L8.008 2.799 L6.296 4.819 L4.163 7.024 M16.088 12.981 L18.221 15.186 L19.944 17.196 L19.77 14.725 L19.77 1.025 C19.77 0.492 20.159 0.113 20.692 0.113 C21.226 0.113 21.605 0.492 21.605 1.025 L21.605 14.725 L21.461 17.175 L23.164 15.186 L25.296 12.981 C25.471 12.807 25.666 12.715 25.932 12.715 C26.465 12.715 26.845 13.084 26.845 13.627 C26.845 13.853 26.732 14.12 26.547 14.304 L21.379 19.585 C20.99 20.005 20.385 19.985 20.005 19.585 L14.837 14.304 C14.653 14.12 14.54 13.853 14.54 13.627 C14.54 13.084 14.919 12.715 15.453 12.715 C15.709 12.715 15.914 12.807 16.088 12.981 Z" fill="#14ebeb" fill-rule="nonzero"/>
</svg>